HIERARCHY
ROOT Hips
{
	OFFSET -0.001795 -0.223333 0.028219
	CHANNELS 6 Xposition Yposition Zposition Zrotation Yrotation Xrotation 
	JOINT LeftUpLeg
	{
		OFFSET 0.069520 -0.091406 -0.006815
		CHANNELS 3 Zrotation Yrotation Xrotation
		JOINT LeftLeg
		{
			OFFSET 0.034277 -0.375199 -0.004496
			CHANNELS 3 Zrotation Yrotation Xrotation
			JOINT LeftFoot
			{
				OFFSET -0.013596 -0.397961 -0.043693
				CHANNELS 3 Zrotation Yrotation Xrotation
				JOINT LeftToe
				{
					OFFSET 0.026358 -0.055791 0.119288
					CHANNELS 3 Zrotation Yrotation Xrotation
					End Site
					{
						OFFSET 0.000000 0.000000 0.000000
					}
				}
			}
		}
	}
	JOINT RightUpLeg
	{
		OFFSET -0.067670 -0.090522 -0.004320
		CHANNELS 3 Zrotation Yrotation Xrotation
		JOINT RightLeg
		{
			OFFSET -0.038290 -0.382569 -0.008850
			CHANNELS 3 Zrotation Yrotation Xrotation
			JOINT RightFoot
			{
				OFFSET 0.015774 -0.398415 -0.042312
				CHANNELS 3 Zrotation Yrotation Xrotation
				JOINT RightToe
				{
					OFFSET -0.025372 -0.048144 0.123348
					CHANNELS 3 Zrotation Yrotation Xrotation
					End Site
					{
						OFFSET 0.000000 0.000000 0.000000
					}
				}
			}
		}
	}
	JOINT Spine
	{
		OFFSET -0.002533 0.108963 -0.026696
		CHANNELS 3 Zrotation Yrotation Xrotation
		JOINT Spine1
		{
			OFFSET 0.005487 0.135180 0.001092
			CHANNELS 3 Zrotation Yrotation Xrotation
			JOINT Spine2
			{
				OFFSET 0.001457 0.052922 0.025425
				CHANNELS 3 Zrotation Yrotation Xrotation
				JOINT Neck
				{
					OFFSET -0.002778 0.213870 -0.042857
					CHANNELS 3 Zrotation Yrotation Xrotation
					JOINT Head
					{
						OFFSET 0.005152 0.064970 0.051349
						CHANNELS 3 Zrotation Yrotation Xrotation
						End Site
						{
							OFFSET 0.000000 0.000000 0.000000
						}
					}
				}
				JOINT LeftShoulder
				{
					OFFSET 0.078845 0.121749 -0.034090
					CHANNELS 3 Zrotation Yrotation Xrotation
					JOINT LeftArm
					{
						OFFSET 0.090977 0.030469 -0.008868
						CHANNELS 3 Zrotation Yrotation Xrotation
						JOINT LeftForeArm
						{
							OFFSET 0.259612 -0.012772 -0.027456
							CHANNELS 3 Zrotation Yrotation Xrotation
							JOINT LeftHand
							{
								OFFSET 0.249234 0.008986 -0.001171
								CHANNELS 3 Zrotation Yrotation Xrotation
								End Site
								{
									OFFSET 0.000000 0.000000 0.000000
								}
							}
						}
					}
				}
				JOINT RightShoulder
				{
					OFFSET -0.081759 0.118833 -0.038615
					CHANNELS 3 Zrotation Yrotation Xrotation
					JOINT RightArm
					{
						OFFSET -0.096012 0.032551 -0.009143
						CHANNELS 3 Zrotation Yrotation Xrotation
						JOINT RightForeArm
						{
							OFFSET -0.253742 -0.013329 -0.021401
							CHANNELS 3 Zrotation Yrotation Xrotation
							JOINT RightHand
							{
								OFFSET -0.255298 0.007772 -0.005559
								CHANNELS 3 Zrotation Yrotation Xrotation
								End Site
								{
									OFFSET 0.000000 0.000000 0.000000
								}
							}
						}
					}
				}
			}
		}
	}
}
MOTION
Frames: 8
Frame Time: 0.050000
0.002136 0.958045 -0.038256 0.198911 -9.368139 -0.427023 5.905473 0.648920 10.394936 -4.022568 0.568192 -10.093592 4.080123 11.156127 18.084201 0.000000 0.000000 0.000000 -6.916314 0.161651 6.331972 5.249533 -0.353210 -7.040094 -1.076358 -9.426950 16.096971 0.000000 0.000000 0.000000 8.163798 -0.084059 0.646928 -6.298435 2.083510 -20.382894 -0.436380 9.511330 33.148125 9.921374 -4.635073 -21.064997 0.000000 0.000000 0.000000 -14.517698 -3.428891 0.485771 -61.546658 -13.744575 -3.432873 -160.922810 -81.376203 166.699274 0.000000 0.000000 0.000000 21.894105 -7.541299 -4.613346 65.626975 12.153438 -2.751910 125.211874 76.413228 125.270208 0.000000 0.000000 0.000000 
0.001939 0.958705 -0.039534 0.019246 -9.846994 -0.233207 5.961632 0.651650 10.329234 -3.869454 0.570545 -10.306280 4.302410 11.455510 18.404810 0.000000 0.000000 0.000000 -6.769255 0.156356 6.574793 5.300897 -0.324820 -8.074471 -0.723322 -9.057285 16.618111 0.000000 0.000000 0.000000 8.418878 -0.027271 0.137761 -6.098418 2.015915 -20.365770 -0.060902 10.084015 33.372448 10.663079 -5.140881 -20.812315 0.000000 0.000000 0.000000 -13.493321 -2.943133 0.265963 -62.172198 -13.760575 -3.470113 -166.107857 -75.871010 171.752313 0.000000 0.000000 0.000000 21.861651 -8.119936 -4.887330 65.887085 11.867577 -2.894213 135.906323 71.515738 134.348428 0.000000 0.000000 0.000000 
0.001861 0.959349 -0.040821 0.092352 -10.245242 0.039345 5.778494 0.673021 10.320676 -3.776739 0.582025 -10.875296 4.435779 11.641674 18.876266 0.000000 0.000000 0.000000 -7.082541 0.209462 6.524698 5.689788 -0.298924 -8.804379 -0.452740 -8.792789 17.050264 0.000000 0.000000 0.000000 8.754776 0.016188 -0.257471 -6.348730 2.074310 -20.558171 0.040830 10.521967 33.467104 11.142153 -5.399589 -21.012756 0.000000 0.000000 0.000000 -12.747013 -3.032757 0.333787 -62.353574 -13.864709 -3.441783 -169.415889 -72.928083 175.612324 0.000000 0.000000 0.000000 21.714142 -8.493444 -5.056601 66.351793 11.774231 -2.910630 138.968511 68.141981 135.774448 0.000000 0.000000 0.000000 
0.001800 0.959758 -0.042206 0.041496 -10.574433 0.397480 5.805307 0.669052 10.225688 -3.804042 0.598696 -11.440048 4.552326 11.799877 19.250580 0.000000 0.000000 0.000000 -7.122782 0.230859 6.423613 5.845923 -0.268361 -9.556915 -0.225278 -8.588237 17.454028 0.000000 0.000000 0.000000 9.080715 0.062634 -0.672990 -6.407038 2.078189 -20.773771 0.133421 10.872223 33.421413 11.869638 -5.899551 -20.861722 0.000000 0.000000 0.000000 -12.009896 -2.650379 0.179828 -63.165193 -13.051904 -3.904565 -167.932007 -69.652681 173.056310 0.000000 0.000000 0.000000 21.606303 -8.928011 -5.284804 66.264340 11.565611 -2.995410 139.118940 65.415765 133.664120 0.000000 0.000000 0.000000 
0.001827 0.960165 -0.043770 0.008620 -10.549570 0.459136 5.632028 0.669796 10.084069 -3.415505 0.585942 -11.494203 4.563171 11.821474 19.371135 0.000000 0.000000 0.000000 -6.842563 0.198435 6.445925 5.451618 -0.263845 -9.877043 -0.202056 -8.616713 17.653254 0.000000 0.000000 0.000000 9.192077 0.093912 -0.923369 -6.312262 2.048898 -20.849597 0.325772 11.061345 33.387104 12.217732 -6.157989 -20.624929 0.000000 0.000000 0.000000 -11.890726 -2.811946 0.229156 -62.948922 -12.470354 -4.229880 -167.037685 -68.122283 171.273703 0.000000 0.000000 0.000000 21.510276 -8.888348 -5.202214 65.703139 11.602159 -2.976159 140.255059 64.466409 134.476339 0.000000 0.000000 0.000000 
0.001888 0.960307 -0.045370 -0.129595 -10.539890 0.697824 5.611956 0.644468 9.766761 -3.112960 0.576512 -11.539516 4.611225 11.884386 19.413923 0.000000 0.000000 0.000000 -6.545234 0.166750 6.454960 5.224019 -0.250425 -10.486498 -0.152489 -8.628526 17.947070 0.000000 0.000000 0.000000 9.446116 0.136418 -1.271441 -6.351096 2.053221 -21.062769 0.512347 11.240146 33.748242 12.921983 -6.632156 -20.624536 0.000000 0.000000 0.000000 -11.779078 -2.675763 0.151389 -63.297698 -11.273046 -4.945441 -161.592454 -65.991671 162.481627 0.000000 0.000000 0.000000 21.564240 -9.297507 -5.404529 65.081657 11.146355 -3.277170 138.484052 62.986580 130.668989 0.000000 0.000000 0.000000 
0.001942 0.960400 -0.047021 -0.064570 -10.679959 0.816300 5.454780 0.651228 9.673766 -2.980028 0.581148 -11.776190 4.669581 11.961794 19.580486 0.000000 0.000000 0.000000 -6.728456 0.193292 6.515268 5.434327 -0.225877 -11.071921 -0.040247 -8.545378 18.213137 0.000000 0.000000 0.000000 9.824427 0.148051 -1.326864 -6.625263 2.122535 -21.271857 0.575057 11.676764 34.007108 13.254897 -6.768807 -20.823979 0.000000 0.000000 0.000000 -11.747797 -2.983990 0.246157 -62.884753 -10.283131 -5.507126 -159.142139 -64.977314 158.046959 0.000000 0.000000 0.000000 21.680905 -9.513699 -5.456216 64.446210 11.080059 -3.350732 137.390653 62.027636 128.377481 0.000000 0.000000 0.000000 
0.002068 0.960423 -0.048640 -0.237868 -10.395928 1.207501 5.524593 0.605243 9.293088 -2.719616 0.577664 -12.068924 4.575353 11.852762 19.612236 0.000000 0.000000 0.000000 -6.630740 0.183733 6.251469 5.662680 -0.217051 -11.407200 -0.137382 -8.737081 18.483427 0.000000 0.000000 0.000000 10.082452 0.188867 -1.695740 -6.552287 2.101995 -21.418099 0.484952 11.768163 33.902625 13.821335 -7.132819 -20.750063 0.000000 0.000000 0.000000 -12.136055 -3.320166 0.322710 -62.265923 -8.993117 -6.143377 -156.688273 -63.876629 153.378134 0.000000 0.000000 0.000000 21.824787 -9.464271 -5.386829 63.208805 11.094418 -3.354838 136.761353 61.815024 127.192301 0.000000 0.000000 0.000000 
